:SAMPLES-PER-SECOND 30
:FULLY-SPECIFIED
:DEGREES
594
root  20.2308 38.8124 9.25642 148.898 -86.7461 -155.806
RightUpLeg  2.27342 -9.37871 0.597831
RightLeg  19.4247 0.921794 1.16757
RightFoot  -13.6845 -0.187569 -4.65624
RightToes  -8.73116e-010 0 -3.6325e-017
Spine  10.0762 -0.952509 12.301
Spine1  9.56594 1.78631 -4.96049
HEad  -0.789122 -26.734 -3.31077
LeftShoulder1  -0.24747 4.15863 -31.6545
LeftArm  -19.1548 9.37207 -28.7541
LeftForeArm  107.038 -78.4281 -115.46
LeftHand  0.109735 -0.924484 -1.93909
RightShoulder  -0.679673 -5.48613 27.6065
RightArm  -0.420401 -15.7522 36.3581
RightForeArm  102.502 74.8136 132.049
RightHand  -0.60545 7.20974 -5.92363
LeftUpLeg  -20.8828 -0.494809 2.64544
LeftLeg  41.2996 -4.97881 -4.30699
LeftFoot  -1.54222 0.258623 -2.92252
LeftToes  -5.63919e-011 3.32596e-011 1.92487e-011
595
root  18.6742 38.9092 8.99683 160.067 -86.2361 -167.186
RightUpLeg  6.9033 -8.96827 -0.0530263
RightLeg  15.8867 1.3671 1.17015
RightFoot  -14.6426 -0.22835 -4.49023
RightToes  -8.73116e-010 0 -3.6325e-017
Spine  10.166 -0.320401 11.7423
Spine1  9.72697 2.50843 -6.06654
HEad  -1.27848 -27.1539 -2.99071
LeftShoulder1  -0.227561 4.11305 -31.2325
LeftArm  -20.51 9.79983 -28.5187
LeftForeArm  108.719 -78.1973 -117.58
LeftHand  0.0796612 -0.818577 -1.4128
RightShoulder  -0.659319 -5.42984 27.5381
RightArm  0.118119 -14.8231 38.0614
RightForeArm  103.12 75.0824 131.192
RightHand  -0.570707 7.46419 -5.50258
LeftUpLeg  -19.878 1.16562 2.51751
LeftLeg  26.7875 -5.7737 -2.87119
LeftFoot  -1.52971 0.329958 -3.73087
LeftToes  -5.63919e-011 3.32596e-011 1.92487e-011
596
root  17.1097 38.9132 8.7937 165.743 -85.7498 -172.373
RightUpLeg  10.6887 -8.92499 -0.632698
RightLeg  12.5217 2.09143 1.26824
RightFoot  -15.5256 -0.254146 -4.08144
RightToes  -8.73116e-010 0 -3.6325e-017
Spine  9.14312 0.119116 11.529
Spine1  10.5704 3.13021 -7.54453
HEad  -1.58 -27.2037 -2.3601
LeftShoulder1  -0.253521 4.19211 -30.6989
LeftArm  -21.6577 10.4485 -28.4729
LeftForeArm  108.223 -78.1132 -117.954
LeftHand  0.0639947 -0.465455 -1.22848
RightShoulder  -0.627613 -5.33222 27.6077
RightArm  0.658358 -13.5916 39.6758
RightForeArm  103.278 75.3699 130.137
RightHand  -0.572071 7.27174 -5.58463
LeftUpLeg  -18.6855 1.71336 2.48418
LeftLeg  11.4281 -6.89486 -1.13889
LeftFoot  -1.48593 0.390428 -4.39785
LeftToes  -5.63919e-011 3.32596e-011 1.92487e-011
597
root  15.5217 38.7793 8.59678 168.545 -85.4639 -175.134
RightUpLeg  14.5595 -8.81634 -1.11913
RightLeg  10.1011 2.5103 1.15266
RightFoot  -16.8738 -0.281355 -3.46352
RightToes  -8.73116e-010 0 -3.6325e-017
Spine  8.738 0.451405 10.6845
Spine1  11.2106 3.54154 -8.20259
HEad  -1.49841 -27.733 -1.9842
LeftShoulder1  -0.294477 4.30534 -30.5999
LeftArm  -22.3246 11.1568 -28.4199
LeftForeArm  105.814 -78.1604 -116.865
LeftHand  0.0532647 -0.465045 -1.01638
RightShoulder  -0.624782 -5.31614 27.753
RightArm  1.34193 -12.4756 40.7173
RightForeArm  100.811 75.7116 128.261
RightHand  -0.725835 7.78272 -6.74427
LeftUpLeg  -17.7884 2.80457 2.19632
LeftLeg  0.413139 -8.771 0.2694
LeftFoot  -2.92714 0.30192 -3.94637
LeftToes  -5.63919e-011 3.32596e-011 1.92487e-011
598
root  13.8641 38.4348 8.4761 170.52 -85.4484 -177.444
RightUpLeg  17.8736 -8.96623 -1.91698
RightLeg  10.0934 3.0357 1.03626
RightFoot  -19.3673 -0.312622 -2.60749
RightToes  -8.73116e-010 0 -3.6325e-017
Spine  8.5391 0.551287 9.5543
Spine1  11.8137 3.60009 -8.22166
HEad  -2.63297 -21.4898 -1.50515
LeftShoulder1  -0.338875 4.4259 -30.6153
LeftArm  -23.1724 11.532 -28.4214
LeftForeArm  105.643 -78.1742 -116.716
LeftHand  0.0336852 -0.605556 -0.591525
RightShoulder  -0.603406 -5.25138 27.7895
RightArm  1.91668 -11.2964 41.8097
RightForeArm  98.3921 76.1204 125.958
RightHand  -0.819937 8.01946 -7.44948
LeftUpLeg  -18.0249 3.38542 2.04238
LeftLeg  -2.50533 -6.71968 -0.15905
LeftFoot  -4.75857 0.367673 -5.7622
LeftToes  -5.63919e-011 3.32596e-011 1.92487e-011
